<?xml version="1.0" encoding="UTF-8" standalone="no"?>
<!DOCTYPE svg PUBLIC "-//W3C//DTD SVG 1.1//EN" "http://www.w3.org/Graphics/SVG/1.1/DTD/svg11.dtd">
<svg width="100%" height="100%" viewBox="0 0 217 219" version="1.1" xmlns="http://www.w3.org/2000/svg" xmlns:xlink="http://www.w3.org/1999/xlink" xml:space="preserve" xmlns:serif="http://www.serif.com/" style="fill-rule:evenodd;clip-rule:evenodd;stroke-linejoin:round;stroke-miterlimit:2;">
    <g id="Artboard1" transform="matrix(1,0,0,1,-674,-59)">
        <rect x="674" y="59" width="217" height="219" style="fill:none;"/>
        <g transform="matrix(1,0,0,1,611.167,0)">
            <rect x="153.818" y="149.98" width="32.015" height="32.015" style="fill:rgb(65,3,68);"/>
        </g>
        <g transform="matrix(1,0,0,1,572.175,-38.9878)">
            <rect x="153.818" y="149.98" width="32.015" height="32.015" style="fill:rgb(113,58,255);"/>
        </g>
        <g transform="matrix(1,0,0,1,650.182,-38.9878)">
            <rect x="153.818" y="149.98" width="32.015" height="32.015" style="fill:rgb(113,58,255);"/>
        </g>
        <g transform="matrix(1,0,0,1,611.167,-38.9878)">
            <rect x="153.818" y="149.98" width="32.015" height="32.015" style="fill:rgb(65,3,68);"/>
        </g>
        <g transform="matrix(1,0,0,1,573.518,-77.9951)">
            <rect x="153.818" y="149.98" width="32.015" height="32.015" style="fill:rgb(113,58,255);"/>
        </g>
        <g transform="matrix(1,0,0,1,610.843,-77.9951)">
            <rect x="153.818" y="149.98" width="32.015" height="32.015" style="fill:rgb(113,58,255);"/>
        </g>
        <g transform="matrix(1,0,0,1,650.175,-77.9951)">
            <rect x="153.818" y="149.98" width="32.015" height="32.015" style="fill:rgb(113,58,255);"/>
        </g>
        <g transform="matrix(1,0,0,1,689.175,-77.9951)">
            <rect x="153.818" y="149.98" width="32.015" height="32.015" style="fill:rgb(113,58,255);"/>
        </g>
        <g transform="matrix(1,0,0,1,689.182,-38.9951)">
            <rect x="153.818" y="149.98" width="32.015" height="32.015" style="fill:rgb(113,58,255);"/>
        </g>
        <g transform="matrix(1,0,0,1,689.182,0.00487805)">
            <rect x="153.818" y="149.98" width="32.015" height="32.015" style="fill:rgb(113,58,255);"/>
        </g>
        <g transform="matrix(1,0,0,1,689.175,39.0049)">
            <rect x="153.818" y="149.98" width="32.015" height="32.015" style="fill:rgb(113,58,255);"/>
        </g>
        <g transform="matrix(1,0,0,1,689.175,78.0049)">
            <rect x="153.818" y="149.98" width="32.015" height="32.015" style="fill:rgb(113,58,255);"/>
        </g>
        <g transform="matrix(1,0,0,1,650.175,78.0049)">
            <rect x="153.818" y="149.98" width="32.015" height="32.015" style="fill:rgb(113,58,255);"/>
        </g>
        <g transform="matrix(1,0,0,1,611.175,78.0049)">
            <rect x="153.818" y="149.98" width="32.015" height="32.015" style="fill:rgb(113,58,255);"/>
        </g>
        <g transform="matrix(1,0,0,1,572.175,78.0049)">
            <rect x="153.818" y="149.98" width="32.015" height="32.015" style="fill:rgb(113,58,255);"/>
        </g>
        <g transform="matrix(1,0,0,1,533.167,78.0049)">
            <rect x="153.818" y="149.98" width="32.015" height="32.015" style="fill:rgb(113,58,255);"/>
        </g>
        <g transform="matrix(1,0,0,1,533.167,39.0049)">
            <rect x="153.818" y="149.98" width="32.015" height="32.015" style="fill:rgb(113,58,255);"/>
        </g>
        <g transform="matrix(1,0,0,1,533.167,0.00487805)">
            <rect x="153.818" y="149.98" width="32.015" height="32.015" style="fill:rgb(113,58,255);"/>
        </g>
        <g transform="matrix(1,0,0,1,533.167,-38.9951)">
            <rect x="153.818" y="149.98" width="32.015" height="32.015" style="fill:rgb(113,58,255);"/>
        </g>
        <g transform="matrix(1,0,0,1,533.001,-77.9951)">
            <rect x="153.818" y="149.98" width="32.015" height="32.015" style="fill:rgb(113,58,255);"/>
        </g>
        <g transform="matrix(1,0,0,1,650.182,39.0122)">
            <rect x="153.818" y="149.98" width="32.015" height="32.015" style="fill:rgb(113,58,255);"/>
        </g>
        <g transform="matrix(1,0,0,1,572.175,39.0122)">
            <rect x="153.818" y="149.98" width="32.015" height="32.015" style="fill:rgb(113,58,255);"/>
        </g>
        <g transform="matrix(1,0,0,1,611.167,39.0122)">
            <rect x="153.818" y="149.98" width="32.015" height="32.015" style="fill:rgb(65,3,68);"/>
        </g>
        <g transform="matrix(1,0,0,1,650.167,0)">
            <rect x="153.818" y="149.98" width="32.015" height="32.015" style="fill:rgb(65,3,68);"/>
        </g>
        <g transform="matrix(1,0,0,1,572.167,0)">
            <rect x="153.818" y="149.98" width="32.015" height="32.015" style="fill:rgb(65,3,68);"/>
        </g>
    </g>
</svg>
